<svg width="24" height="24" viewBox="0 0 24 24" fill="none" xmlns="http://www.w3.org/2000/svg">
<g clip-path="url(#clip0_11564_30865)">
<path d="M7.19128 5.21314C12.6716 -0.226914 19.3201 -1.63879 21.9808 2.06915C24.6414 5.77709 22.303 13.2715 16.8227 18.7116C11.3423 24.1919 4.69382 25.6018 1.99293 21.8535C-0.625388 18.1073 1.71297 10.6512 7.19128 5.21314Z" fill="#F06321"/>
<path d="M10.8186 2.31081C10.2144 2.75391 9.61018 3.27757 9.00596 3.84353C4.21041 8.59678 2.19429 15.1244 4.57294 18.3893C7.03012 21.6521 12.9133 20.4437 17.8297 15.6481C20.4903 13.0701 22.2627 10.0872 22.9878 7.30777C23.1892 5.2534 22.9072 3.4387 21.9807 2.06912C19.8861 -0.831168 15.3725 -0.591493 10.8186 2.31081Z" fill="#AE282E"/>
<path d="M17.7491 2.91496V3.03581C17.7089 3.7206 17.306 4.56651 16.5809 5.29159C15.4933 6.33891 14.0432 6.74173 13.4369 6.13952C12.7521 5.49501 13.157 4.08314 14.2446 2.95525C15.3725 1.86764 16.8226 1.5051 17.4268 2.14961C17.6282 2.35102 17.7491 2.59271 17.7491 2.91496ZM13.5598 21.4103C10.9797 23.3439 8.32113 24.3126 5.74109 23.9098C6.8287 23.9501 7.7169 22.7396 8.44197 21.1284C9.16705 19.4768 9.56986 17.9461 9.93239 16.494C10.4561 14.1979 10.4964 12.5866 10.2144 12.2241C9.77127 11.6581 8.8045 11.781 7.6746 12.4255C7.11066 12.7477 6.38559 12.5463 7.23352 11.499C8.11972 10.4517 11.5437 7.9522 12.7521 7.54938C14.1237 7.18684 15.6544 7.71051 15.1308 9.20094C14.7662 10.2885 10.013 22.6994 13.5598 21.4103Z" fill="white"/>
</g>
<defs>
<clipPath id="clip0_11564_30865">
<rect width="24" height="24" fill="white"/>
</clipPath>
</defs>
</svg>
