<svg xmlns="http://www.w3.org/2000/svg" xmlns:xlink="http://www.w3.org/1999/xlink" width="1920" zoomAndPan="magnify" viewBox="0 0 1440 809.999993" height="1080" preserveAspectRatio="xMidYMid meet" version="1.0"><path stroke-linecap="round" transform="matrix(0, -0.75, 0.75, 0, 482.023926, 604.497758)" fill="none" stroke-linejoin="miter" d="M 17.502219 17.49935 L 312.606401 17.49935 " stroke="#18ada5" stroke-width="35" stroke-opacity="1" stroke-miterlimit="4"/><path stroke-linecap="round" transform="matrix(0.652876, -0.369124, 0.369124, 0.652876, 477.890118, 364.608254)" fill="none" stroke-linejoin="miter" d="M 17.497837 17.499252 L 314.793483 17.500451 " stroke="#18ada5" stroke-width="35" stroke-opacity="1" stroke-miterlimit="4"/><path stroke-linecap="round" transform="matrix(-0.644946, -0.382811, 0.382811, -0.644946, 884.559154, 390.550606)" fill="none" stroke-linejoin="miter" d="M 17.497948 17.49881 L 310.292219 17.500442 " stroke="#18ada5" stroke-width="35" stroke-opacity="1" stroke-miterlimit="4"/><path stroke-linecap="round" transform="matrix(0.00420081, -0.749988, 0.749988, 0.00420081, 577.700137, 658.574819)" fill="none" stroke-linejoin="miter" d="M 17.500135 17.499989 L 306.546344 17.500808 " stroke="#18ada5" stroke-width="35" stroke-opacity="1" stroke-miterlimit="4"/><path stroke-linecap="round" transform="matrix(0, -0.75, 0.75, 0, 774.337815, 658.643651)" fill="none" stroke-linejoin="miter" d="M 17.498827 17.497497 L 185.57696 17.497497 " stroke="#18ada5" stroke-width="35" stroke-opacity="1" stroke-miterlimit="4"/><path stroke-linecap="round" transform="matrix(-0.00675975, -0.74997, 0.74997, -0.00675975, 869.238418, 603.391214)" fill="none" stroke-linejoin="miter" d="M 17.5 17.502006 L 306.704483 17.49923 " stroke="#18ada5" stroke-width="35" stroke-opacity="1" stroke-miterlimit="4"/><path stroke-linecap="round" transform="matrix(0.66278, 0.35103, -0.35103, 0.66278, 587.193385, 410.822423)" fill="none" stroke-linejoin="miter" d="M 17.498315 17.49847 L 164.287539 17.498356 " stroke="#18ada5" stroke-width="35" stroke-opacity="1" stroke-miterlimit="4"/><path stroke-linecap="round" transform="matrix(-0.648722, 0.376378, -0.376378, -0.648722, 900.217233, 596.831822)" fill="none" stroke-linejoin="miter" d="M 17.501158 17.499737 L 161.321887 17.502803 " stroke="#18ada5" stroke-width="35" stroke-opacity="1" stroke-miterlimit="4"/><path stroke-linecap="round" transform="matrix(-0.650909, -0.372583, 0.372583, -0.650909, 790.022078, 441.57055)" fill="none" stroke-linejoin="miter" d="M 17.498418 17.499818 L 298.55992 17.499842 " stroke="#18ada5" stroke-width="35" stroke-opacity="1" stroke-miterlimit="4"/><path stroke-linecap="round" transform="matrix(-0.649048, -0.375815, 0.375815, -0.649048, 595.07148, 665.277347)" fill="none" stroke-linejoin="miter" d="M 17.499973 17.4977 L 162.309661 17.498016 " stroke="#18ada5" stroke-width="35" stroke-opacity="1" stroke-miterlimit="4"/><path stroke-linecap="round" transform="matrix(0.642543, -0.386831, 0.386831, 0.642543, 674.024732, 572.186055)" fill="none" stroke-linejoin="miter" d="M 17.50092 17.499203 L 166.029574 17.502833 " stroke="#18ada5" stroke-width="35" stroke-opacity="1" stroke-miterlimit="4"/><path stroke-linecap="round" transform="matrix(0.665104, 0.346608, -0.346608, 0.665104, 590.198953, 509.539866)" fill="none" stroke-linejoin="miter" d="M 17.501736 17.501014 L 160.90043 17.501063 " stroke="#18ada5" stroke-width="35" stroke-opacity="1" stroke-miterlimit="4"/><path stroke-linecap="round" transform="matrix(0.648829, -0.376192, 0.376192, 0.648829, 674.443028, 474.732884)" fill="none" stroke-linejoin="miter" d="M 17.50229 17.501127 L 291.272417 17.497981 " stroke="#18ada5" stroke-width="35" stroke-opacity="1" stroke-miterlimit="4"/></svg>