<svg xmlns="http://www.w3.org/2000/svg" xmlns:xlink="http://www.w3.org/1999/xlink" width="1920" zoomAndPan="magnify" viewBox="0 0 1440 809.999993" height="1080" preserveAspectRatio="xMidYMid meet" version="1.0"><path stroke-linecap="round" transform="matrix(0.000768317, -0.75, 0.75, 0.000768317, 381.485142, 663.167267)" fill="none" stroke-linejoin="miter" d="M 29.998564 29.999514 L 527.358235 30.000424 " stroke="#0d7872" stroke-width="60" stroke-opacity="1" stroke-miterlimit="4"/><path stroke-linecap="round" transform="matrix(0.645817, -0.38134, 0.38134, 0.645817, 373.585711, 254.682722)" fill="none" stroke-linejoin="miter" d="M 30.002082 30.001493 L 521.452363 30.001021 " stroke="#0d7872" stroke-width="60" stroke-opacity="1" stroke-miterlimit="4"/><path stroke-linecap="round" transform="matrix(-0.637919, -0.39441, 0.39441, -0.637919, 1040.733362, 297.814399)" fill="none" stroke-linejoin="miter" d="M 29.998742 30.001998 L 513.129977 30.000336 " stroke="#0d7872" stroke-width="60" stroke-opacity="1" stroke-miterlimit="4"/><path stroke-linecap="round" transform="matrix(0.00402489, -0.749989, 0.749989, 0.00402489, 537.967299, 755.501286)" fill="none" stroke-linejoin="miter" d="M 30.001674 29.997614 L 523.196339 30.001918 " stroke="#0d7872" stroke-width="60" stroke-opacity="1" stroke-miterlimit="4"/><path stroke-linecap="round" transform="matrix(0, -0.75, 0.75, 0, 859.603787, 747.55023)" fill="none" stroke-linejoin="miter" d="M 29.999267 30.002244 L 305.921156 30.002244 " stroke="#0d7872" stroke-width="60" stroke-opacity="1" stroke-miterlimit="4"/><path stroke-linecap="round" transform="matrix(-0.000936167, -0.749999, 0.749999, -0.000936167, 1013.688363, 638.59182)" fill="none" stroke-linejoin="miter" d="M 30.001671 29.999864 L 494.189549 30.001149 " stroke="#0d7872" stroke-width="60" stroke-opacity="1" stroke-miterlimit="4"/><path stroke-linecap="round" transform="matrix(0.655551, 0.364352, -0.364352, 0.655551, 559.377458, 332.684211)" fill="none" stroke-linejoin="miter" d="M 29.99977 30.000037 L 266.341966 30.002422 " stroke="#0d7872" stroke-width="60" stroke-opacity="1" stroke-miterlimit="4"/><path stroke-linecap="round" transform="matrix(-0.614013, 0.430683, -0.430683, -0.614013, 1066.405729, 626.606892)" fill="none" stroke-linejoin="miter" d="M 29.997118 30.000478 L 275.324346 29.997516 " stroke="#0d7872" stroke-width="60" stroke-opacity="1" stroke-miterlimit="4"/><path stroke-linecap="round" transform="matrix(-0.644933, -0.382833, 0.382833, -0.644933, 868.428947, 377.611407)" fill="none" stroke-linejoin="miter" d="M 30.000213 30.001537 L 463.39627 30.00079 " stroke="#0d7872" stroke-width="60" stroke-opacity="1" stroke-miterlimit="4"/><path stroke-linecap="round" transform="matrix(-0.64272, -0.386537, 0.386537, -0.64272, 563.740346, 765.605477)" fill="none" stroke-linejoin="miter" d="M 30.000998 30.001279 L 263.843921 29.997966 " stroke="#0d7872" stroke-width="60" stroke-opacity="1" stroke-miterlimit="4"/><path stroke-linecap="round" transform="matrix(0.633778, -0.401031, 0.401031, 0.633778, 693.908875, 608.623933)" fill="none" stroke-linejoin="miter" d="M 30.00061 29.999017 L 271.410045 29.999247 " stroke="#0d7872" stroke-width="60" stroke-opacity="1" stroke-miterlimit="4"/><path stroke-linecap="round" transform="matrix(0.658848, 0.358356, -0.358356, 0.658848, 560.275586, 501.178003)" fill="none" stroke-linejoin="miter" d="M 29.999236 30.002217 L 264.569622 30.000598 " stroke="#0d7872" stroke-width="60" stroke-opacity="1" stroke-miterlimit="4"/><path stroke-linecap="round" transform="matrix(0.643356, -0.385477, 0.385477, 0.643356, 694.374883, 441.017926)" fill="none" stroke-linejoin="miter" d="M 29.998442 29.998443 L 482.560098 30.002928 " stroke="#0d7872" stroke-width="60" stroke-opacity="1" stroke-miterlimit="4"/></svg>