<?xml version="1.0" encoding="UTF-8"?>
<svg version="1.1" xmlns="http://www.w3.org/2000/svg" width="280" height="83">
<path d="M0 0 C2.44775391 1.05395508 2.44775391 1.05395508 4.9765625 2.51953125 C5.894375 3.04740234 6.8121875 3.57527344 7.7578125 4.11914062 C8.70398437 4.67794922 9.65015625 5.23675781 10.625 5.8125 C11.57890625 6.35970703 12.5328125 6.90691406 13.515625 7.47070312 C22.22571992 12.5311456 22.22571992 12.5311456 24 15 C24.38818359 17.86328125 24.38818359 17.86328125 24.3984375 21.3125 C24.40423828 23.17261719 24.40423828 23.17261719 24.41015625 25.0703125 C24.39855469 26.36710937 24.38695312 27.66390625 24.375 29 C24.38660156 30.29679687 24.39820313 31.59359375 24.41015625 32.9296875 C24.40628906 34.16976562 24.40242188 35.40984375 24.3984375 36.6875 C24.39505371 37.82574219 24.39166992 38.96398438 24.38818359 40.13671875 C24 43 24 43 22.65307617 44.77832031 C20.17352805 46.61079097 17.59499168 48.18714949 14.9375 49.75 C13.87402344 50.38421875 12.81054688 51.0184375 11.71484375 51.671875 C10.81894531 52.11015625 9.92304687 52.5484375 9 53 C8.01 52.505 8.01 52.505 7 52 C7 48.37 7 44.74 7 41 C5.453125 42.0209375 5.453125 42.0209375 3.875 43.0625 C1.16024899 44.60286174 0.15830062 45.00323062 -3.0625 44.9375 C-6.2466037 43.92129669 -9.07088822 42.6040374 -12 41 C-11.67 41.66 -11.34 42.32 -11 43 C-10.93049459 44.54023996 -10.91547643 46.08334988 -10.9375 47.625 C-10.94652344 48.44226563 -10.95554687 49.25953125 -10.96484375 50.1015625 C-10.97644531 50.72804687 -10.98804687 51.35453125 -11 52 C-15.62143258 53.54047753 -18.90378504 51.83700724 -23.06665039 49.79980469 C-26.38776016 47.63624379 -27.76484383 45.91357796 -28.76416016 42.03125 C-31.19741207 21.71085439 -31.19741207 21.71085439 -28 14 C-26.09814453 12.47607422 -26.09814453 12.47607422 -23.6328125 11.0546875 C-22.74722656 10.53519531 -21.86164062 10.01570313 -20.94921875 9.48046875 C-19.55123047 8.68576172 -19.55123047 8.68576172 -18.125 7.875 C-16.29410981 6.81017265 -14.46337409 5.74507966 -12.6328125 4.6796875 C-11.81699707 4.21288574 -11.00118164 3.74608398 -10.16064453 3.26513672 C-3.87229604 -0.41692225 -3.87229604 -0.41692225 0 0 Z M-8 8 C-4.8796018 11.43320096 -1.60789533 13.62080283 2.4375 15.875 C4.10619141 16.83019531 4.10619141 16.83019531 5.80859375 17.8046875 C8.89566846 19.30225089 8.89566846 19.30225089 11.78515625 18.3203125 C14.1010362 17.06250192 14.1010362 17.06250192 16 15 C13.21251481 13.32626249 10.41935573 11.66223733 7.625 10 C6.8309375 9.52304687 6.036875 9.04609375 5.21875 8.5546875 C4.07792969 7.87792969 4.07792969 7.87792969 2.9140625 7.1875 C2.2123291 6.76855469 1.5105957 6.34960938 0.78759766 5.91796875 C-2.87949137 4.03484191 -4.77421986 5.96266517 -8 8 Z M-21.2890625 15.08349609 C-24.27090216 18.42359902 -23.80287214 22.02457645 -23.703125 26.32617188 C-23.63609375 27.47666016 -23.5690625 28.62714844 -23.5 29.8125 C-23.46390625 30.98232422 -23.4278125 32.15214844 -23.390625 33.35742188 C-23.29644716 36.24161831 -23.16507439 39.11913451 -23 42 C-21.02 42.99 -19.04 43.98 -17 45 C-17 36.42 -17 27.84 -17 19 C-10.8125 22.5625 -10.8125 22.5625 -8.89379883 23.69750977 C-6.18916499 25.20224508 -4.37647122 26.022019 -1.26171875 25.83984375 C1.22877118 25.01386109 1.22877118 25.01386109 4 23 C4 22.34 4 21.68 4 21 C1.40011448 19.49212623 -1.20440197 17.99354539 -3.8125 16.5 C-4.91948242 15.85611328 -4.91948242 15.85611328 -6.04882812 15.19921875 C-6.76103516 14.79316406 -7.47324219 14.38710938 -8.20703125 13.96875 C-8.8616333 13.59169922 -9.51623535 13.21464844 -10.19067383 12.82617188 C-14.41469158 10.89740705 -17.69526418 12.75098276 -21.2890625 15.08349609 Z M13.88671875 22.44140625 C13.05076172 22.94220703 12.21480469 23.44300781 11.35351562 23.95898438 C9.58303387 25.02386754 7.8173343 26.09674427 6.05664062 27.17773438 C5.21681641 27.67724609 4.37699219 28.17675781 3.51171875 28.69140625 C2.74303467 29.15748291 1.97435059 29.62355957 1.18237305 30.10375977 C-2.02750399 31.42196746 -3.83240118 30.45802149 -6.921875 29.24609375 C-8.61458333 28.49739583 -10.30729167 27.74869792 -12 27 C-12.58560449 30.28841143 -12.58560449 30.28841143 -12 34 C-10.02483047 36.42781255 -7.87838497 37.80445034 -5 39 C1.69973809 39.37923046 6.56536811 35.49900957 12 32 C12 36.29 12 40.58 12 45 C14.31 43.68 16.62 42.36 19 41 C19 34.07 19 27.14 19 20 C17.10355196 20 15.45548109 21.48369988 13.88671875 22.44140625 Z " fill="#387070" transform="translate(41,17)"/>
<path d="M0 0 C1.65 0 3.3 0 5 0 C6.98 3.63 8.96 7.26 11 11 C12.65 7.37 14.3 3.74 16 0 C17.65 0 19.3 0 21 0 C22 1 22 1 22.11352539 3.04125977 C22.10828857 3.91580811 22.10305176 4.79035645 22.09765625 5.69140625 C22.09443359 6.63564453 22.09121094 7.57988281 22.08789062 8.55273438 C22.07951172 9.54595703 22.07113281 10.53917969 22.0625 11.5625 C22.05798828 12.55958984 22.05347656 13.55667969 22.04882812 14.58398438 C22.03700007 17.05604849 22.02051849 19.52799518 22 22 C20.35 22 18.7 22 17 22 C16.67 19.36 16.34 16.72 16 14 C14.68 16.64 13.36 19.28 12 22 C10.68 21.67 9.36 21.34 8 21 C6.75 18.4375 6.75 18.4375 6 16 C5.34 17.98 4.68 19.96 4 22 C2.35 22 0.7 22 -1 22 C-1.02887814 18.52085059 -1.04675687 15.04173169 -1.0625 11.5625 C-1.07087891 10.56927734 -1.07925781 9.57605469 -1.08789062 8.55273438 C-1.09111328 7.60849609 -1.09433594 6.66425781 -1.09765625 5.69140625 C-1.10289307 4.81685791 -1.10812988 3.94230957 -1.11352539 3.04125977 C-1 1 -1 1 0 0 Z M4 11 C5 13 5 13 5 13 Z " fill="#030302" transform="translate(228,34)"/>
<path d="M0 0 C1.65 0 3.3 0 5 0 C6.98 3.63 8.96 7.26 11 11 C11.53625 9.370625 12.0725 7.74125 12.625 6.0625 C13.71484375 3.296875 13.71484375 3.296875 15 1 C18.1875 -0.1875 18.1875 -0.1875 21 0 C22 1 22 1 22.11352539 3.04125977 C22.10828857 3.91580811 22.10305176 4.79035645 22.09765625 5.69140625 C22.09443359 6.63564453 22.09121094 7.57988281 22.08789062 8.55273438 C22.07951172 9.54595703 22.07113281 10.53917969 22.0625 11.5625 C22.05798828 12.55958984 22.05347656 13.55667969 22.04882812 14.58398438 C22.03700007 17.05604849 22.02051849 19.52799518 22 22 C20.35 22 18.7 22 17 22 C16.67 19.36 16.34 16.72 16 14 C15.01 16.64 14.02 19.28 13 22 C10.6875 22 10.6875 22 8 21 C6.58711853 18.38948072 5.864695 15.86714656 5 13 C4.67 15.97 4.34 18.94 4 22 C2.35 22 0.7 22 -1 22 C-1.02887814 18.52085059 -1.04675687 15.04173169 -1.0625 11.5625 C-1.07087891 10.56927734 -1.07925781 9.57605469 -1.08789062 8.55273438 C-1.09111328 7.60849609 -1.09433594 6.66425781 -1.09765625 5.69140625 C-1.10289307 4.81685791 -1.10812988 3.94230957 -1.11352539 3.04125977 C-1 1 -1 1 0 0 Z " fill="#040302" transform="translate(182,34)"/>
<path d="M0 0 C2.35546875 0.15234375 2.35546875 0.15234375 5 1 C6.80078125 3.06640625 6.80078125 3.06640625 8.3125 5.5625 C8.82425781 6.38878906 9.33601562 7.21507812 9.86328125 8.06640625 C10.23839844 8.70449219 10.61351562 9.34257813 11 10 C11.33 7.03 11.66 4.06 12 1 C13.65614657 0.61781233 15.32457024 0.28604898 17 0 C18 1 18 1 18.11352539 3.04125977 C18.10828857 3.91580811 18.10305176 4.79035645 18.09765625 5.69140625 C18.09443359 6.63564453 18.09121094 7.57988281 18.08789062 8.55273438 C18.07951172 9.54595703 18.07113281 10.53917969 18.0625 11.5625 C18.05798828 12.55958984 18.05347656 13.55667969 18.04882812 14.58398438 C18.03700007 17.05604849 18.02051849 19.52799518 18 22 C15.6262207 22.13671875 15.6262207 22.13671875 13 22 C10.98046875 19.8125 10.98046875 19.8125 9.1875 17 C8.58292969 16.071875 7.97835937 15.14375 7.35546875 14.1875 C6.68451172 13.1046875 6.68451172 13.1046875 6 12 C5.67 15.3 5.34 18.6 5 22 C3.35 22 1.7 22 0 22 C-1.16581918 19.66836164 -1.12905609 18.27846518 -1.1328125 15.68359375 C-1.13410156 14.83732422 -1.13539062 13.99105469 -1.13671875 13.11914062 C-1.13285156 12.23419922 -1.12898438 11.34925781 -1.125 10.4375 C-1.12886719 9.54869141 -1.13273437 8.65988281 -1.13671875 7.74414062 C-1.13542969 6.89916016 -1.13414063 6.05417969 -1.1328125 5.18359375 C-1.13168457 4.40556396 -1.13055664 3.62753418 -1.12939453 2.82592773 C-1 1 -1 1 0 0 Z " fill="#020201" transform="translate(123,34)"/>
<path d="M0 0 C11.82352941 0 11.82352941 0 16.3125 4.125 C18.52394659 7.89264975 18.71733205 10.73057794 18 15 C16.16379183 19.2232788 15.26177203 19.86911399 11 22 C7.37 22 3.74 22 0 22 C0 14.74 0 7.48 0 0 Z M5 5 C5 8.96 5 12.92 5 17 C6.65 17 8.3 17 10 17 C12.18331689 15.23863645 12.18331689 15.23863645 12.1953125 13.0546875 C12.17210937 12.33539063 12.14890625 11.61609375 12.125 10.875 C12.08375 9.59625 12.0425 8.3175 12 7 C9.35261084 5.5393715 8.10551666 5 5 5 Z " fill="#030303" transform="translate(143,34)"/>
<path d="M0 0 C1.6875 1.375 1.6875 1.375 2.4375 4.5 C2.56125 5.923125 2.56125 5.923125 2.6875 7.375 C-0.87030196 6.76509109 -3.9953589 5.7966319 -7.3125 4.375 C-7.3125 5.365 -7.3125 6.355 -7.3125 7.375 C-6.054375 7.6225 -4.79625 7.87 -3.5 8.125 C-0.71055767 8.83225222 0.5495529 9.25377376 2.75 11.1875 C3.99273536 14.08721584 3.81529715 15.44272742 2.6875 18.375 C0.19882917 21.26185816 -1.41956194 21.38859517 -5.25 21.875 C-8.73717978 21.75115623 -9.35184777 21.34466943 -12.3125 19.0625 C-14.3125 16.375 -14.3125 16.375 -14.3125 13.375 C-12.3325 13.375 -10.3525 13.375 -8.3125 13.375 C-7.9825 14.035 -7.6525 14.695 -7.3125 15.375 C-4.78516765 16.03055119 -4.78516765 16.03055119 -2.3125 16.375 C-2.3125 15.385 -2.3125 14.395 -2.3125 13.375 C-3.385 13.271875 -4.4575 13.16875 -5.5625 13.0625 C-10.99168089 12.06715017 -10.99168089 12.06715017 -13.3125 9.375 C-13.875 6.4375 -13.875 6.4375 -13.3125 3.375 C-9.28215364 -1.12950476 -5.67359467 -1.53340397 0 0 Z " fill="#040303" transform="translate(176.3125,34.625)"/>
<path d="M0 0 C1.65 0.33 3.3 0.66 5 1 C5.33 5.95 5.66 10.9 6 16 C7.65 15.67 9.3 15.34 11 15 C11.33 10.38 11.66 5.76 12 1 C13.32 0.67 14.64 0.34 16 0 C18.11094855 2.11094855 17.32263358 6.41568476 17.375 9.3125 C17.41238281 10.08529297 17.44976562 10.85808594 17.48828125 11.65429688 C17.55152255 15.74038734 17.55879933 17.38156976 14.73046875 20.51171875 C10.62599362 22.74892193 8.63808616 22.58896332 4 22 C1.56880377 20.12984906 0.35930827 18.71861655 -1 16 C-1.09773002 13.4676428 -1.13910387 10.96914408 -1.125 8.4375 C-1.12886719 7.73947266 -1.13273437 7.04144531 -1.13671875 6.32226562 C-1.12663994 1.12663994 -1.12663994 1.12663994 0 0 Z " fill="#050303" transform="translate(103,34)"/>
<path d="M0 0 C0.86625 0.12375 1.7325 0.2475 2.625 0.375 C5.31740568 4.11484288 6.78451413 8.17758951 8.3125 12.5 C8.96798828 14.32917969 8.96798828 14.32917969 9.63671875 16.1953125 C10.625 19.375 10.625 19.375 10.625 22.375 C8.645 22.375 6.665 22.375 4.625 22.375 C4.295 20.725 3.965 19.075 3.625 17.375 C1.315 17.375 -0.995 17.375 -3.375 17.375 C-3.705 19.025 -4.035 20.675 -4.375 22.375 C-6.025 22.375 -7.675 22.375 -9.375 22.375 C-8.79708517 17.26570756 -7.6569361 12.85888389 -5.875 8 C-5.4315625 6.77539062 -4.988125 5.55078125 -4.53125 4.2890625 C-3.01853455 0.47661072 -3.01853455 0.47661072 0 0 Z M-0.375 8.375 C-0.705 10.025 -1.035 11.675 -1.375 13.375 C-0.385 13.375 0.605 13.375 1.625 13.375 C1.295 11.725 0.965 10.075 0.625 8.375 C0.295 8.375 -0.035 8.375 -0.375 8.375 Z " fill="#030302" transform="translate(261.375,33.625)"/>
<path d="M0 0 C0.86625 0.12375 1.7325 0.2475 2.625 0.375 C5.31740568 4.11484288 6.78451413 8.17758951 8.3125 12.5 C8.96798828 14.32917969 8.96798828 14.32917969 9.63671875 16.1953125 C10.625 19.375 10.625 19.375 10.625 22.375 C8.645 22.375 6.665 22.375 4.625 22.375 C4.295 20.725 3.965 19.075 3.625 17.375 C1.315 17.375 -0.995 17.375 -3.375 17.375 C-3.705 19.025 -4.035 20.675 -4.375 22.375 C-6.025 22.375 -7.675 22.375 -9.375 22.375 C-8.79708517 17.26570756 -7.6569361 12.85888389 -5.875 8 C-5.4315625 6.77539062 -4.988125 5.55078125 -4.53125 4.2890625 C-3.01853455 0.47661072 -3.01853455 0.47661072 0 0 Z M-0.375 8.375 C-0.705 10.025 -1.035 11.675 -1.375 13.375 C-0.385 13.375 0.605 13.375 1.625 13.375 C1.295 11.725 0.965 10.075 0.625 8.375 C0.295 8.375 -0.035 8.375 -0.375 8.375 Z " fill="#030302" transform="translate(215.375,33.625)"/>
<path d="M0 0 C0.66 0 1.32 0 2 0 C4.28606619 4.57213239 3.23016856 10.91766753 3.25 15.9375 C3.270625 17.23880859 3.29125 18.54011719 3.3125 19.88085938 C3.31765625 21.12544922 3.3228125 22.37003906 3.328125 23.65234375 C3.3374707 24.79695068 3.34681641 25.94155762 3.35644531 27.12084961 C3 30 3 30 1.6574707 31.78051758 C-0.82614162 33.60783288 -3.40475273 35.18699917 -6.0625 36.75 C-7.12597656 37.38421875 -8.18945312 38.0184375 -9.28515625 38.671875 C-10.18105469 39.11015625 -11.07695313 39.5484375 -12 40 C-12.66 39.67 -13.32 39.34 -14 39 C-14 35.37 -14 31.74 -14 28 C-15.98 28.66 -17.96 29.32 -20 30 C-19.34 29.01 -18.68 28.02 -18 27 C-17.34 27 -16.68 27 -16 27 C-16 26.34 -16 25.68 -16 25 C-16.99 25.66 -17.98 26.32 -19 27 C-21.26171875 27.1953125 -21.26171875 27.1953125 -23.6875 27.125 C-24.89986328 27.09792969 -24.89986328 27.09792969 -26.13671875 27.0703125 C-26.75160156 27.04710938 -27.36648437 27.02390625 -28 27 C-28 26.34 -28 25.68 -28 25 C-27.05125 25.12375 -26.1025 25.2475 -25.125 25.375 C-20.32460164 25.43390059 -17.02230005 22.88305302 -13.13671875 20.3125 C-11 19 -11 19 -9 19 C-8.67 22.96 -8.34 26.92 -8 31 C-2.89778052 28.71342943 -2.89778052 28.71342943 -2.29296875 25.51953125 C-2.25816406 24.62621094 -2.22335938 23.73289062 -2.1875 22.8125 C-2.13980469 21.91144531 -2.09210937 21.01039062 -2.04296875 20.08203125 C-2.02169922 19.05142578 -2.02169922 19.05142578 -2 18 C-1.67 18 -1.34 18 -1 18 C-1 21.3 -1 24.6 -1 28 C-0.01 28 0.98 28 2 28 C1.86024595 24.45806625 1.71211066 20.91653001 1.5625 17.375 C1.52318359 16.37597656 1.48386719 15.37695312 1.44335938 14.34765625 C1.23427386 9.49043896 0.97041445 4.77867956 0 0 Z " fill="#36706E" transform="translate(62,30)"/>
<path d="M0 0 C1.79244141 0.01740234 1.79244141 0.01740234 3.62109375 0.03515625 C5.41740234 0.04869141 5.41740234 0.04869141 7.25 0.0625 C8.17683594 0.07410156 9.10367188 0.08570313 10.05859375 0.09765625 C10.38859375 1.74765625 10.71859375 3.39765625 11.05859375 5.09765625 C8.08859375 5.09765625 5.11859375 5.09765625 2.05859375 5.09765625 C2.05859375 6.41765625 2.05859375 7.73765625 2.05859375 9.09765625 C4.69859375 9.09765625 7.33859375 9.09765625 10.05859375 9.09765625 C10.05859375 10.74765625 10.05859375 12.39765625 10.05859375 14.09765625 C7.41859375 14.09765625 4.77859375 14.09765625 2.05859375 14.09765625 C2.07921875 15.23203125 2.09984375 16.36640625 2.12109375 17.53515625 C2.05859375 21.09765625 2.05859375 21.09765625 1.05859375 22.09765625 C-0.6075774 22.13829457 -2.2752872 22.14037725 -3.94140625 22.09765625 C-3.97028439 18.61850684 -3.98816312 15.13938794 -4.00390625 11.66015625 C-4.01228516 10.66693359 -4.02066406 9.67371094 -4.02929688 8.65039062 C-4.03251953 7.70615234 -4.03574219 6.76191406 -4.0390625 5.7890625 C-4.04429932 4.91451416 -4.04953613 4.03996582 -4.05493164 3.13891602 C-3.87241007 -0.14293959 -3.34119162 0.11092934 0 0 Z " fill="#030302" transform="translate(89.94140625,33.90234375)"/>
<path d="M0 0 C2.475 0.99 2.475 0.99 5 2 C4.76603516 3.01320313 4.76603516 3.01320313 4.52734375 4.046875 C4.33269531 4.93890625 4.13804688 5.8309375 3.9375 6.75 C3.74027344 7.63171875 3.54304688 8.5134375 3.33984375 9.421875 C3.00174128 11.98679028 3.18841365 13.57091639 4 16 C5.65 16.33 7.3 16.66 9 17 C9 17.66 9 18.32 9 19 C10.43791516 18.85831863 11.8753237 18.71148957 13.3125 18.5625 C14.11300781 18.48128906 14.91351563 18.40007813 15.73828125 18.31640625 C18.16087179 18.04734307 18.16087179 18.04734307 21 17 C21 19 21 19 18.875 21.6875 C16 24 16 24 13.125 24 C10.72360062 23.2315522 8.54325156 22.39316563 6.25 21.375 C5.1775 20.92125 4.105 20.4675 3 20 C2.34 20.33 1.68 20.66 1 21 C0.762904 18.62904002 0.52638036 16.25804537 0.29296875 13.88671875 C0.09859303 11.97146999 -0.10703392 10.05732776 -0.32421875 8.14453125 C-0.42347656 7.25121094 -0.52273437 6.35789062 -0.625 5.4375 C-0.72039063 4.61121094 -0.81578125 3.78492188 -0.9140625 2.93359375 C-0.94242188 2.29550781 -0.97078125 1.65742187 -1 1 C-0.67 0.67 -0.34 0.34 0 0 Z " fill="#397576" transform="translate(25,38)"/>
<path d="M0 0 C0.66 0.33 1.32 0.66 2 1 C2 1.99 2 2.98 2 4 C1.01 4 0.02 4 -1 4 C-0.67 2.68 -0.34 1.36 0 0 Z M-9 2 C-9 2.99 -9 3.98 -9 5 C-8.34 4.67 -7.68 4.34 -7 4 C-5.00039988 3.960008 -2.99952758 3.95653201 -1 4 C-1 4.66 -1 5.32 -1 6 C-2.051875 6.103125 -3.10375 6.20625 -4.1875 6.3125 C-8.01092887 7.00197078 -9.97614169 7.62296659 -13 10 C-13.76852946 12.63944009 -13.76852946 12.63944009 -13.6640625 15.65625 C-13.67050781 16.76097656 -13.67695313 17.86570312 -13.68359375 19.00390625 C-13.66425781 20.15761719 -13.64492188 21.31132813 -13.625 22.5 C-13.65400391 24.23056641 -13.65400391 24.23056641 -13.68359375 25.99609375 C-13.67714844 27.10082031 -13.67070312 28.20554687 -13.6640625 29.34375 C-13.65842285 30.35630859 -13.6527832 31.36886719 -13.64697266 32.41210938 C-13.23205592 35.24664173 -13.23205592 35.24664173 -10.45849609 36.85351562 C-9.64719238 37.23185547 -8.83588867 37.61019531 -8 38 C-8.99 38.495 -8.99 38.495 -10 39 C-12.803339 37.8476393 -14.11671857 37.28908613 -16 35 C-16.86854651 30.82972818 -16.69910676 26.74199951 -16.5625 22.5 C-16.56056641 21.35917969 -16.55863281 20.21835937 -16.55664062 19.04296875 C-16.41024279 9.8144827 -16.41024279 9.8144827 -13 6 C-14.32 6.33 -15.64 6.66 -17 7 C-12.22727273 2 -12.22727273 2 -9 2 Z " fill="#2F6564" transform="translate(32,24)"/>
<path d="M0 0 C0.66 0 1.32 0 2 0 C4.28606619 4.57213239 3.23016856 10.91766753 3.25 15.9375 C3.270625 17.23880859 3.29125 18.54011719 3.3125 19.88085938 C3.31765625 21.12544922 3.3228125 22.37003906 3.328125 23.65234375 C3.3374707 24.79695068 3.34681641 25.94155762 3.35644531 27.12084961 C3 30 3 30 1.63964844 31.78735352 C-0.51126225 33.37811787 -2.61670593 34.77779791 -5 36 C-5.66 35.67 -6.32 35.34 -7 35 C-6.34 34.01 -5.68 33.02 -5 32 C-7.475 32.495 -7.475 32.495 -10 33 C-5.25 29.125 -5.25 29.125 -3 28 C-2.53248212 25.64400765 -2.53248212 25.64400765 -2.375 22.9375 C-2.26285156 21.55884766 -2.26285156 21.55884766 -2.1484375 20.15234375 C-2.09945312 19.44207031 -2.05046875 18.73179688 -2 18 C-1.67 18 -1.34 18 -1 18 C-1 21.3 -1 24.6 -1 28 C-0.01 28 0.98 28 2 28 C1.86024595 24.45806625 1.71211066 20.91653001 1.5625 17.375 C1.52318359 16.37597656 1.48386719 15.37695312 1.44335938 14.34765625 C1.23427386 9.49043896 0.97041445 4.77867956 0 0 Z " fill="#2F5D5C" transform="translate(62,30)"/>
<path d="M0 0 C3.51654217 1.02923185 6.48360094 2.2361802 9.5625 4.1875 C12.76019019 6.25832481 12.76019019 6.25832481 15.75 5.8125 C16.4925 5.544375 17.235 5.27625 18 5 C18.99 4.67 19.98 4.34 21 4 C20 7 20 7 17 9 C14.5 8.625 14.5 8.625 12 8 C11.01 8 10.02 8 9 8 C9.33 8.66 9.66 9.32 10 10 C8.68 9.67 7.36 9.34 6 9 C5.66551741 11.832168 5.66551741 11.832168 6 15 C7.87501931 17.37719693 7.87501931 17.37719693 10 19 C7.625 18.8125 7.625 18.8125 5 18 C2.37470137 13.9427203 3.1354022 10.58236832 4 6 C4 5.34 4 4.68 4 4 C2.68 3.67 1.36 3.34 0 3 C0 2.01 0 1.02 0 0 Z " fill="#346767" transform="translate(24,36)"/>
<path d="M0 0 C0 0.99 0 1.98 0 3 C-0.66 3.66 -1.32 4.32 -2 5 C-2.48515227 9.10544819 -2.37039996 13.24416357 -2.375 17.375 C-2.41173828 19.09976563 -2.41173828 19.09976563 -2.44921875 20.859375 C-2.45308594 21.96539062 -2.45695312 23.07140625 -2.4609375 24.2109375 C-2.46915527 25.22462402 -2.47737305 26.23831055 -2.48583984 27.28271484 C-1.8812206 30.66432902 -0.59787601 31.84100223 2 34 C-0.31 33.34 -2.62 32.68 -5 32 C-5.12366555 27.92512506 -5.21436476 23.85097699 -5.2746582 19.7746582 C-5.29979219 18.38839696 -5.33390592 17.00226813 -5.37719727 15.61645508 C-5.43788396 13.62378963 -5.46354879 11.63015467 -5.48828125 9.63671875 C-5.51446533 8.43748779 -5.54064941 7.23825684 -5.56762695 6.00268555 C-5 3 -5 3 -2.46948242 1.08520508 C-1.65455322 0.7270874 -0.83962402 0.36896973 0 0 Z " fill="#367676" transform="translate(19,29)"/>
<path d="M0 0 C0.99 0 1.98 0 3 0 C3.33 0.66 3.66 1.32 4 2 C4.66 1.67 5.32 1.34 6 1 C6 7.93 6 14.86 6 22 C5.01 22 4.02 22 3 22 C2.9498877 21.39937744 2.89977539 20.79875488 2.84814453 20.17993164 C2.61683453 17.47318501 2.37111595 14.76793878 2.125 12.0625 C2.04636719 11.11697266 1.96773437 10.17144531 1.88671875 9.19726562 C1.80292969 8.29814453 1.71914063 7.39902344 1.6328125 6.47265625 C1.52283936 5.22367554 1.52283936 5.22367554 1.41064453 3.94946289 C1.27513184 3.30614014 1.13961914 2.66281738 1 2 C0.34 1.67 -0.32 1.34 -1 1 C-0.67 0.67 -0.34 0.34 0 0 Z " fill="#336D6D" transform="translate(58,36)"/>
<path d="M0 0 C1.58162127 4.32309813 2.55885904 8.41213407 3 13 C2.67 13.66 2.34 14.32 2 15 C3.65 14.67 5.3 14.34 7 14 C4.94766315 16.2477975 3.99332739 17.0022242 1 18 C0 17 0 17 -0.09765625 14.49609375 C-0.08605469 13.48675781 -0.07445312 12.47742188 -0.0625 11.4375 C-0.05347656 10.42558594 -0.04445313 9.41367187 -0.03515625 8.37109375 C-0.02355469 7.58863281 -0.01195312 6.80617188 0 6 C-1.98 6.66 -3.96 7.32 -6 8 C-5.34 7.01 -4.68 6.02 -4 5 C-3.34 5 -2.68 5 -2 5 C-2 4.34 -2 3.68 -2 3 C-2.99 3.66 -3.98 4.32 -5 5 C-7.26171875 5.1953125 -7.26171875 5.1953125 -9.6875 5.125 C-10.89986328 5.09792969 -10.89986328 5.09792969 -12.13671875 5.0703125 C-13.05904297 5.03550781 -13.05904297 5.03550781 -14 5 C-14 4.34 -14 3.68 -14 3 C-12.948125 3.061875 -11.89625 3.12375 -10.8125 3.1875 C-6.49585262 2.97520587 -3.91779798 0 0 0 Z " fill="#32686B" transform="translate(48,52)"/>
<path d="M0 0 C1.65 0.33 3.3 0.66 5 1 C5 7.93 5 14.86 5 22 C4.34 22 3.68 22 3 22 C3 15.4 3 8.8 3 2 C1.68 1.67 0.36 1.34 -1 1 C-0.67 0.67 -0.34 0.34 0 0 Z " fill="#0A0A09" transform="translate(136,34)"/>
<path d="M0 0 C3.01878821 1.66033352 3.97947256 3.33394512 5.5 6.375 C0.89374606 6.69636655 -1.83513904 6.28533076 -5.5 3.375 C-5.5 2.385 -5.5 1.395 -5.5 0.375 C-2.5 -0.625 -2.5 -0.625 0 0 Z " fill="#37726F" transform="translate(36.5,27.625)"/>
<path d="M0 0 C3.60296594 -0.41176754 4.78402067 -0.1535853 7.8125 2 C8.534375 2.66 9.25625 3.32 10 4 C9.67 4.66 9.34 5.32 9 6 C9.99 6.66 10.98 7.32 12 8 C11.67 8.66 11.34 9.32 11 10 C9.96875 9.319375 8.9375 8.63875 7.875 7.9375 C4.92600295 6.22576037 4.13683163 5.99004861 0.5625 6.25 C-0.283125 6.4975 -1.12875 6.745 -2 7 C0.17424117 4.49962266 1.73045798 3.56371414 5 3 C2.525 2.01 2.525 2.01 0 1 C0 0.67 0 0.34 0 0 Z " fill="#396C6A" transform="translate(36,17)"/>
<path d="M0 0 C2.13586678 3.20380017 2.23132175 4.01939967 2.125 7.6875 C2.10695313 8.49574219 2.08890625 9.30398437 2.0703125 10.13671875 C2.03550781 11.05904297 2.03550781 11.05904297 2 12 C1.01 12.33 0.02 12.66 -1 13 C-3.6875 11.0625 -3.6875 11.0625 -6 9 C-4.35 8.67 -2.7 8.34 -1 8 C-0.67 5.36 -0.34 2.72 0 0 Z " fill="#2C605F" transform="translate(28,57)"/>
<path d="M0 0 C0 2.64 0 5.28 0 8 C-2 6.1875 -2 6.1875 -4 4 C-4 3.01 -4 2.02 -4 1 C-1 0 -1 0 0 0 Z " fill="#3B7679" transform="translate(52,51)"/>
<path d="M0 0 C0.66 0.33 1.32 0.66 2 1 C-3.37931034 5.03448276 -3.37931034 5.03448276 -6.25 4.875 C-8 4 -8 4 -10 2 C-9.0925 2.04125 -8.185 2.0825 -7.25 2.125 C-4.06287624 2.00241832 -2.72251062 1.45848783 0 0 Z " fill="#376664" transform="translate(44,44)"/>
<path d="M0 0 C1.051875 0.495 1.051875 0.495 2.125 1 C5.26003116 2.09044562 7.70563182 2.15322643 11 2 C10.01 2.99 9.02 3.98 8 5 C4.5625 4.1875 4.5625 4.1875 1 3 C0.67 2.01 0.34 1.02 0 0 Z " fill="#377A7B" transform="translate(32,42)"/>
<path d="M0 0 C0.99 0.33 1.98 0.66 3 1 C2.67 2.65 2.34 4.3 2 6 C0.35 6 -1.3 6 -3 6 C-2.67 5.34 -2.34 4.68 -2 4 C-1.34 4 -0.68 4 0 4 C0 2.68 0 1.36 0 0 Z " fill="#33777B" transform="translate(25,60)"/>
<path d="M0 0 C0 0.66 0 1.32 0 2 C-1.75 3.6875 -1.75 3.6875 -4 5 C-6.1875 4.8125 -6.1875 4.8125 -8 4 C-8.33 3.34 -8.66 2.68 -9 2 C-2.25 0 -2.25 0 0 0 Z " fill="#337878" transform="translate(46,55)"/>
<path d="M0 0 C-4.95 2.475 -4.95 2.475 -10 5 C-8 1 -8 1 -5.5625 -0.3125 C-3 -1 -3 -1 0 0 Z " fill="#3D6C69" transform="translate(57,39)"/>
<path d="M0 0 C2.31 0.33 4.62 0.66 7 1 C4.94766315 3.2477975 3.99332739 4.0022242 1 5 C0.67 3.35 0.34 1.7 0 0 Z " fill="#2B5C5D" transform="translate(48,65)"/>
<path d="M0 0 C1.65 0 3.3 0 5 0 C5 1.65 5 3.3 5 5 C3.35 4.67 1.7 4.34 0 4 C0.99 3.67 1.98 3.34 3 3 C3 2.34 3 1.68 3 1 C2.01 0.67 1.02 0.34 0 0 Z " fill="#0C0A0A" transform="translate(95,43)"/>
<path d="" fill="#000000" transform="translate(0,0)"/>
<path d="" fill="#000000" transform="translate(0,0)"/>
<path d="" fill="#000000" transform="translate(0,0)"/>
<path d="" fill="#000000" transform="translate(0,0)"/>
<path d="" fill="#000000" transform="translate(0,0)"/>
<path d="" fill="#000000" transform="translate(0,0)"/>
</svg>
